# xmcd
#
# Track frame offsets: 
#        150
#        21585
#        41828
#        42945
#        63455
#        84965
#        107258
#        124703
#        126835
#        143105
#        168528
#        169180
#        191283
#        209470
#
# Disc length: 2962 seconds
#
# Revision: 6
# Processed by: cddbd v1.5.2PL0 Copyright (c) Steve Scherf et al.
# Submitted via: ExactAudioCopyFreeDBPlugin 1.0
#
DISCID=c20b900e
DTITLE=Tevin Campbell - I'm Ready (1993)
DYEAR=1993
DGENRE=Soul
TTITLE0=Can We Talk
TTITLE1=Don't Say Goodbye Girl
TTITLE2=Interlude
TTITLE3=The Halls Of Desire
TTITLE4=I'm Ready
TTITLE5=What Do I Say
TTITLE6=Uncle Sam
TTITLE7=Interlude
TTITLE8=Paris 1798430
TTITLE9=Always In My Heart
TTITLE10=Interlude
TTITLE11=Shhh
TTITLE12=Brown Eyed Girl
TTITLE13=Infant Child
EXTD=
EXTT0=
EXTT1=
EXTT2=
EXTT3=
EXTT4=
EXTT5=
EXTT6=
EXTT7=
EXTT8=
EXTT9=
EXTT10=
EXTT11=
EXTT12=
EXTT13=
PLAYORDER=
